<svg xmlns="http://www.w3.org/2000/svg" xmlns:xlink="http://www.w3.org/1999/xlink" width="130" zoomAndPan="magnify" viewBox="0 0 97.5 30.000001" height="40" preserveAspectRatio="xMidYMid meet" version="1.0"><defs><g/><clipPath id="a086af5a4d"><path d="M 1.332031 0 L 95.683594 0 L 95.683594 29.03125 L 1.332031 29.03125 Z M 1.332031 0 " clip-rule="nonzero"/></clipPath><clipPath id="4ad36e4edb"><path d="M 5 5.671875 L 17.296875 5.671875 L 17.296875 16 L 5 16 Z M 5 5.671875 " clip-rule="nonzero"/></clipPath><clipPath id="ecc96a92da"><path d="M 6 14 L 17.296875 14 L 17.296875 23.09375 L 6 23.09375 Z M 6 14 " clip-rule="nonzero"/></clipPath><clipPath id="1de1990169"><path d="M 2.054688 8 L 9 8 L 9 21 L 2.054688 21 Z M 2.054688 8 " clip-rule="nonzero"/></clipPath></defs><g clip-path="url(#a086af5a4d)"><path fill="#ffffff" d="M 1.332031 0 L 95.683594 0 L 95.683594 29.03125 L 1.332031 29.03125 Z M 1.332031 0 " fill-opacity="1" fill-rule="nonzero"/><path fill="#ffffff" d="M 1.332031 0 L 95.683594 0 L 95.683594 29.03125 L 1.332031 29.03125 Z M 1.332031 0 " fill-opacity="1" fill-rule="nonzero"/></g><g clip-path="url(#4ad36e4edb)"><path fill="#faaa23" d="M 9.675781 5.675781 L 5.71875 7.9375 L 9.675781 10.199219 L 11.410156 11.1875 L 13.335938 12.289062 L 13.335938 15.574219 L 14.921875 14.667969 L 14.921875 11.386719 L 10.308594 8.746094 C 10.132812 8.878906 9.914062 8.957031 9.675781 8.957031 C 9.109375 8.957031 8.648438 8.5 8.648438 7.9375 C 8.648438 7.375 9.109375 6.917969 9.675781 6.917969 C 10.246094 6.917969 10.707031 7.375 10.707031 7.9375 C 10.707031 7.980469 10.703125 8.03125 10.699219 8.074219 L 15.710938 10.9375 L 15.710938 14.222656 L 17.296875 13.3125 L 17.296875 10.027344 Z M 9.675781 5.675781 " fill-opacity="1" fill-rule="nonzero"/></g><path fill="#faaa23" d="M 7.707031 13.058594 L 9.675781 14.183594 L 11.648438 13.058594 L 9.675781 11.929688 Z M 7.707031 13.058594 " fill-opacity="1" fill-rule="nonzero"/><path fill="#faaa23" d="M 8.996094 7.9375 C 8.996094 8.308594 9.304688 8.613281 9.675781 8.613281 C 10.050781 8.613281 10.359375 8.308594 10.359375 7.9375 C 10.359375 7.566406 10.050781 7.261719 9.675781 7.261719 C 9.300781 7.261719 8.996094 7.566406 8.996094 7.9375 Z M 8.996094 7.9375 " fill-opacity="1" fill-rule="nonzero"/><g clip-path="url(#ecc96a92da)"><path fill="#1d9cea" d="M 13.335938 16.472656 L 12.289062 17.070312 L 9.671875 18.5625 L 6.800781 16.921875 L 6.800781 18.738281 L 9.671875 20.382812 L 14.292969 17.742188 C 14.285156 17.695312 14.285156 17.652344 14.285156 17.605469 C 14.285156 17.039062 14.746094 16.582031 15.316406 16.582031 C 15.886719 16.582031 16.347656 17.039062 16.347656 17.605469 C 16.347656 18.167969 15.886719 18.625 15.316406 18.625 C 15.082031 18.625 14.863281 18.546875 14.6875 18.410156 L 9.675781 21.273438 L 6.804688 19.632812 L 6.804688 21.449219 L 9.675781 23.089844 L 17.296875 18.738281 L 17.296875 14.210938 Z M 13.335938 16.472656 " fill-opacity="1" fill-rule="nonzero"/></g><path fill="#1d9cea" d="M 11.820312 13.355469 L 9.851562 14.480469 L 9.851562 16.734375 L 11.820312 15.609375 Z M 11.820312 13.355469 " fill-opacity="1" fill-rule="nonzero"/><path fill="#1d9cea" d="M 15.316406 18.277344 C 15.691406 18.277344 16 17.972656 16 17.605469 C 16 17.234375 15.691406 16.929688 15.316406 16.929688 C 14.941406 16.929688 14.632812 17.234375 14.632812 17.605469 C 14.632812 17.976562 14.9375 18.277344 15.316406 18.277344 Z M 15.316406 18.277344 " fill-opacity="1" fill-rule="nonzero"/><g clip-path="url(#1de1990169)"><path fill="#68bd43" d="M 7.304688 9.742188 L 4.429688 11.386719 L 4.429688 16.660156 C 4.804688 16.8125 5.066406 17.175781 5.066406 17.605469 C 5.066406 18.167969 4.605469 18.625 4.035156 18.625 C 3.464844 18.625 3.003906 18.167969 3.003906 17.605469 C 3.003906 17.175781 3.265625 16.8125 3.640625 16.660156 L 3.640625 10.9375 L 6.515625 9.292969 L 4.929688 8.386719 L 2.054688 10.027344 L 2.054688 18.734375 L 6.015625 20.996094 L 6.015625 12.289062 L 8.890625 10.648438 Z M 7.304688 9.742188 " fill-opacity="1" fill-rule="nonzero"/></g><path fill="#68bd43" d="M 3.355469 17.605469 C 3.355469 17.972656 3.664062 18.277344 4.039062 18.277344 C 4.414062 18.277344 4.71875 17.972656 4.71875 17.605469 C 4.71875 17.234375 4.414062 16.929688 4.039062 16.929688 C 3.660156 16.929688 3.355469 17.234375 3.355469 17.605469 Z M 3.355469 17.605469 " fill-opacity="1" fill-rule="nonzero"/><path fill="#68bd43" d="M 7.53125 13.355469 L 7.53125 15.609375 L 9.5 16.734375 L 9.5 14.480469 Z M 7.53125 13.355469 " fill-opacity="1" fill-rule="nonzero"/><g fill="#ffa857" fill-opacity="1"><g transform="translate(18.070831, 16.483474)"><g><path d="M 0.421875 -4.5 L 0.046875 -4.5 L 0.421875 -6.15625 L 2.078125 -6.15625 L 3.21875 -3.828125 L 3.21875 -6.15625 L 4.890625 -6.15625 L 4.890625 0 L 3.421875 0 L 2.078125 -2.640625 L 2.078125 0 L 0.421875 0 Z M 0.421875 -4.5 "/></g></g></g><g fill="#ffa857" fill-opacity="1"><g transform="translate(23.37888, 16.483474)"><g><path d="M 3.46875 -0.046875 C 3.28125 0.00390625 3.101562 0.0390625 2.9375 0.0625 C 2.78125 0.0820312 2.617188 0.09375 2.453125 0.09375 C 2.023438 0.09375 1.664062 0.0195312 1.375 -0.125 C 1.082031 -0.269531 0.832031 -0.5 0.625 -0.8125 C 0.320312 -1.257812 0.171875 -1.757812 0.171875 -2.3125 C 0.171875 -2.632812 0.21875 -2.929688 0.3125 -3.203125 C 0.414062 -3.484375 0.550781 -3.722656 0.71875 -3.921875 C 0.894531 -4.128906 1.097656 -4.289062 1.328125 -4.40625 C 1.566406 -4.53125 1.828125 -4.59375 2.109375 -4.59375 C 2.734375 -4.59375 3.207031 -4.304688 3.53125 -3.734375 C 3.800781 -3.265625 3.9375 -2.722656 3.9375 -2.109375 C 3.9375 -2.097656 3.9375 -2.066406 3.9375 -2.015625 C 3.9375 -1.972656 3.929688 -1.929688 3.921875 -1.890625 L 1.71875 -1.890625 C 1.800781 -1.648438 1.914062 -1.476562 2.0625 -1.375 C 2.21875 -1.28125 2.429688 -1.234375 2.703125 -1.234375 C 2.867188 -1.234375 3.046875 -1.25 3.234375 -1.28125 C 3.429688 -1.320312 3.613281 -1.375 3.78125 -1.4375 Z M 2.5 -2.78125 C 2.46875 -3 2.414062 -3.15625 2.34375 -3.25 C 2.28125 -3.34375 2.191406 -3.390625 2.078125 -3.390625 C 1.960938 -3.390625 1.867188 -3.332031 1.796875 -3.21875 C 1.722656 -3.113281 1.675781 -2.96875 1.65625 -2.78125 Z M 2.5 -2.78125 "/></g></g></g><g fill="#ffa857" fill-opacity="1"><g transform="translate(27.449924, 16.483474)"><g><path d="M 0.4375 -1.671875 C 0.644531 -1.523438 0.816406 -1.421875 0.953125 -1.359375 C 1.085938 -1.304688 1.207031 -1.28125 1.3125 -1.28125 C 1.46875 -1.28125 1.546875 -1.335938 1.546875 -1.453125 C 1.546875 -1.503906 1.519531 -1.550781 1.46875 -1.59375 C 1.414062 -1.644531 1.304688 -1.710938 1.140625 -1.796875 C 0.523438 -2.097656 0.21875 -2.535156 0.21875 -3.109375 C 0.21875 -3.328125 0.253906 -3.523438 0.328125 -3.703125 C 0.410156 -3.890625 0.519531 -4.046875 0.65625 -4.171875 C 0.800781 -4.304688 0.96875 -4.410156 1.15625 -4.484375 C 1.34375 -4.554688 1.550781 -4.59375 1.78125 -4.59375 C 1.882812 -4.59375 1.976562 -4.582031 2.0625 -4.5625 C 2.15625 -4.550781 2.25 -4.535156 2.34375 -4.515625 C 2.445312 -4.492188 2.550781 -4.457031 2.65625 -4.40625 C 2.769531 -4.363281 2.894531 -4.3125 3.03125 -4.25 L 2.75 -2.953125 C 2.394531 -3.160156 2.128906 -3.265625 1.953125 -3.265625 C 1.910156 -3.265625 1.867188 -3.25 1.828125 -3.21875 C 1.796875 -3.1875 1.78125 -3.144531 1.78125 -3.09375 C 1.78125 -3.0625 1.78125 -3.035156 1.78125 -3.015625 C 1.789062 -2.992188 1.816406 -2.96875 1.859375 -2.9375 C 1.898438 -2.914062 1.960938 -2.878906 2.046875 -2.828125 C 2.128906 -2.785156 2.253906 -2.71875 2.421875 -2.625 C 2.910156 -2.351562 3.15625 -1.945312 3.15625 -1.40625 C 3.15625 -1.1875 3.113281 -0.984375 3.03125 -0.796875 C 2.945312 -0.617188 2.828125 -0.460938 2.671875 -0.328125 C 2.523438 -0.191406 2.347656 -0.0859375 2.140625 -0.015625 C 1.941406 0.0546875 1.71875 0.09375 1.46875 0.09375 C 1.039062 0.09375 0.582031 -0.00390625 0.09375 -0.203125 Z M 0.4375 -1.671875 "/></g></g></g><g fill="#ffa857" fill-opacity="1"><g transform="translate(30.69938, 16.483474)"><g><path d="M 0.4375 -1.671875 C 0.644531 -1.523438 0.816406 -1.421875 0.953125 -1.359375 C 1.085938 -1.304688 1.207031 -1.28125 1.3125 -1.28125 C 1.46875 -1.28125 1.546875 -1.335938 1.546875 -1.453125 C 1.546875 -1.503906 1.519531 -1.550781 1.46875 -1.59375 C 1.414062 -1.644531 1.304688 -1.710938 1.140625 -1.796875 C 0.523438 -2.097656 0.21875 -2.535156 0.21875 -3.109375 C 0.21875 -3.328125 0.253906 -3.523438 0.328125 -3.703125 C 0.410156 -3.890625 0.519531 -4.046875 0.65625 -4.171875 C 0.800781 -4.304688 0.96875 -4.410156 1.15625 -4.484375 C 1.34375 -4.554688 1.550781 -4.59375 1.78125 -4.59375 C 1.882812 -4.59375 1.976562 -4.582031 2.0625 -4.5625 C 2.15625 -4.550781 2.25 -4.535156 2.34375 -4.515625 C 2.445312 -4.492188 2.550781 -4.457031 2.65625 -4.40625 C 2.769531 -4.363281 2.894531 -4.3125 3.03125 -4.25 L 2.75 -2.953125 C 2.394531 -3.160156 2.128906 -3.265625 1.953125 -3.265625 C 1.910156 -3.265625 1.867188 -3.25 1.828125 -3.21875 C 1.796875 -3.1875 1.78125 -3.144531 1.78125 -3.09375 C 1.78125 -3.0625 1.78125 -3.035156 1.78125 -3.015625 C 1.789062 -2.992188 1.816406 -2.96875 1.859375 -2.9375 C 1.898438 -2.914062 1.960938 -2.878906 2.046875 -2.828125 C 2.128906 -2.785156 2.253906 -2.71875 2.421875 -2.625 C 2.910156 -2.351562 3.15625 -1.945312 3.15625 -1.40625 C 3.15625 -1.1875 3.113281 -0.984375 3.03125 -0.796875 C 2.945312 -0.617188 2.828125 -0.460938 2.671875 -0.328125 C 2.523438 -0.191406 2.347656 -0.0859375 2.140625 -0.015625 C 1.941406 0.0546875 1.71875 0.09375 1.46875 0.09375 C 1.039062 0.09375 0.582031 -0.00390625 0.09375 -0.203125 Z M 0.4375 -1.671875 "/></g></g></g><g fill="#ffa857" fill-opacity="1"><g transform="translate(33.948836, 16.483474)"><g><path d="M 1.9375 -0.015625 C 1.65625 -0.0234375 1.4375 -0.0507812 1.28125 -0.09375 C 1.132812 -0.144531 0.992188 -0.234375 0.859375 -0.359375 C 0.628906 -0.566406 0.457031 -0.832031 0.34375 -1.15625 C 0.226562 -1.476562 0.171875 -1.851562 0.171875 -2.28125 C 0.171875 -2.613281 0.207031 -2.921875 0.28125 -3.203125 C 0.363281 -3.484375 0.476562 -3.71875 0.625 -3.90625 C 0.769531 -4.101562 0.945312 -4.253906 1.15625 -4.359375 C 1.375 -4.472656 1.613281 -4.53125 1.875 -4.53125 C 2.019531 -4.53125 2.144531 -4.515625 2.25 -4.484375 C 2.363281 -4.453125 2.484375 -4.398438 2.609375 -4.328125 L 2.609375 -4.5 L 4.078125 -4.5 L 4.078125 -1.484375 L 4.390625 -1.484375 L 4.078125 0 L 2.5625 0 L 2.5625 -1.359375 L 2.25 0 Z M 2.5625 -2.34375 C 2.5625 -2.457031 2.554688 -2.546875 2.546875 -2.609375 C 2.546875 -2.679688 2.539062 -2.738281 2.53125 -2.78125 C 2.519531 -2.832031 2.507812 -2.875 2.5 -2.90625 C 2.488281 -2.9375 2.472656 -2.960938 2.453125 -2.984375 C 2.378906 -3.054688 2.296875 -3.09375 2.203125 -3.09375 C 2.054688 -3.09375 1.941406 -3.019531 1.859375 -2.875 C 1.773438 -2.726562 1.734375 -2.539062 1.734375 -2.3125 C 1.734375 -1.75 1.945312 -1.46875 2.375 -1.46875 C 2.394531 -1.46875 2.421875 -1.46875 2.453125 -1.46875 C 2.492188 -1.46875 2.53125 -1.472656 2.5625 -1.484375 Z M 2.5625 -2.34375 "/></g></g></g><g fill="#ffa857" fill-opacity="1"><g transform="translate(38.389135, 16.483474)"><g><path d="M 0.390625 -4.796875 L 0.046875 -4.796875 L 0.390625 -6.3125 L 1.90625 -6.3125 L 1.90625 -3.140625 L 2.203125 -4.5 L 2.625 -4.5 C 2.875 -4.5 3.066406 -4.476562 3.203125 -4.4375 C 3.347656 -4.394531 3.472656 -4.316406 3.578125 -4.203125 C 3.671875 -4.109375 3.742188 -4.003906 3.796875 -3.890625 C 3.847656 -3.785156 3.882812 -3.65625 3.90625 -3.5 C 3.914062 -3.445312 3.921875 -3.40625 3.921875 -3.375 C 3.921875 -3.34375 3.921875 -3.296875 3.921875 -3.234375 C 3.929688 -3.171875 3.9375 -3.085938 3.9375 -2.984375 C 3.9375 -2.878906 3.9375 -2.734375 3.9375 -2.546875 L 3.9375 -1.484375 L 4.25 -1.484375 L 3.9375 0 L 2.421875 0 L 2.421875 -1.703125 C 2.421875 -1.960938 2.414062 -2.164062 2.40625 -2.3125 C 2.40625 -2.457031 2.398438 -2.566406 2.390625 -2.640625 C 2.390625 -2.710938 2.382812 -2.757812 2.375 -2.78125 C 2.363281 -2.8125 2.351562 -2.835938 2.34375 -2.859375 C 2.269531 -2.941406 2.15625 -2.984375 2 -2.984375 C 1.96875 -2.984375 1.9375 -2.984375 1.90625 -2.984375 L 1.90625 0 L 0.390625 0 Z M 0.390625 -4.796875 "/></g></g></g><path stroke-linecap="butt" transform="matrix(0.634025, 0, 0, 0.634025, 43.427417, 9.443909)" fill="none" stroke-linejoin="miter" d="M 1.402136 5.152841 L 0.921575 5.152841 L 1.402136 2.996478 L 4.858478 2.996478 L 6.756078 10.999666 L 4.365595 10.999666 L 4.094509 9.619594 L 2.578894 9.619594 L 2.289325 10.999666 L -0.0210637 10.999666 Z M 3.866551 7.832893 L 3.361346 5.602597 L 2.843819 7.832893 Z M 7.236639 7.124373 L 6.793044 7.124373 L 7.236639 5.152841 L 9.202009 5.152841 L 9.202009 5.682691 C 9.32523 5.491698 9.466934 5.349995 9.639443 5.26374 C 9.811952 5.177486 10.03375 5.134358 10.298674 5.134358 C 10.33564 5.134358 10.372607 5.134358 10.415734 5.134358 C 10.4527 5.134358 10.501988 5.140519 10.563599 5.152841 L 10.126165 7.124373 C 10.009105 7.056602 9.904368 7.025797 9.818113 7.025797 C 9.719537 7.025797 9.627121 7.050441 9.540867 7.093568 C 9.448451 7.136695 9.38068 7.198306 9.337552 7.266077 C 9.312908 7.309204 9.288264 7.352332 9.269781 7.40162 C 9.251298 7.450908 9.238976 7.512519 9.226654 7.586451 C 9.220493 7.660384 9.214332 7.75896 9.208171 7.87602 C 9.208171 7.986919 9.202009 8.134784 9.202009 8.313454 L 9.202009 10.999666 L 7.236639 10.999666 Z M 11.161219 7.112051 L 10.545116 7.112051 L 10.970227 5.152841 L 11.161219 5.152841 L 11.161219 4.425839 L 13.12659 3.920634 L 13.12659 5.152841 L 13.970653 5.152841 L 13.520897 7.112051 L 13.12659 7.112051 L 13.12659 10.999666 L 11.161219 10.999666 Z M 14.401925 7.124373 L 13.952169 7.124373 L 14.401925 5.152841 L 16.367296 5.152841 L 16.367296 9.083583 L 16.786247 9.083583 L 16.367296 10.999666 L 14.401925 10.999666 Z M 14.734621 2.756198 L 16.693831 2.756198 L 16.274881 4.715408 L 14.303349 4.715408 Z M 17.414673 8.830981 C 17.685758 9.009651 17.907556 9.145194 18.086226 9.225287 C 18.258735 9.305381 18.418922 9.342347 18.554465 9.342347 C 18.751618 9.342347 18.850194 9.268414 18.850194 9.114389 C 18.850194 9.046617 18.819389 8.978846 18.751618 8.917235 C 18.683846 8.861786 18.542142 8.775531 18.338828 8.670794 C 17.537893 8.282648 17.137426 7.709672 17.137426 6.958025 C 17.137426 6.674618 17.186714 6.415854 17.285291 6.181735 C 17.383867 5.947615 17.525571 5.744301 17.704241 5.577953 C 17.889072 5.411605 18.098548 5.276062 18.35115 5.183647 C 18.597592 5.08507 18.868677 5.035782 19.164407 5.035782 C 19.293789 5.035782 19.41701 5.041943 19.534069 5.060426 C 19.65729 5.078909 19.780511 5.103553 19.903732 5.134358 C 20.033114 5.165163 20.168656 5.208291 20.31036 5.26374 C 20.445903 5.319189 20.60609 5.386961 20.78476 5.467054 L 20.42742 7.16134 C 19.965342 6.896415 19.626485 6.760872 19.392366 6.760872 C 19.330755 6.760872 19.275306 6.785516 19.232179 6.822483 C 19.189051 6.86561 19.164407 6.914898 19.164407 6.98267 C 19.164407 7.019636 19.170568 7.050441 19.176729 7.075085 C 19.18289 7.099729 19.213696 7.130534 19.262984 7.167501 C 19.318433 7.204467 19.398527 7.253755 19.509425 7.315366 C 19.626485 7.376976 19.786672 7.469391 19.989986 7.592612 C 20.630734 7.943791 20.951108 8.46748 20.951108 9.163677 C 20.951108 9.453246 20.895659 9.712009 20.790921 9.95229 C 20.680022 10.186409 20.532158 10.389723 20.335004 10.568393 C 20.137851 10.747063 19.903732 10.882606 19.638807 10.975022 C 19.367721 11.073598 19.078153 11.122887 18.757779 11.122887 C 18.197124 11.122887 17.599504 10.993505 16.971078 10.734741 Z M 21.73356 7.112051 L 21.117456 7.112051 L 21.542568 5.152841 L 21.73356 5.152841 L 21.73356 4.425839 L 23.698931 3.920634 L 23.698931 5.152841 L 24.542993 5.152841 L 24.093237 7.112051 L 23.698931 7.112051 L 23.698931 10.999666 L 21.73356 10.999666 Z M 24.974266 7.124373 L 24.52451 7.124373 L 24.974266 5.152841 L 26.939637 5.152841 L 26.939637 5.682691 C 27.062857 5.491698 27.204561 5.349995 27.37707 5.26374 C 27.549579 5.177486 27.765216 5.134358 28.036301 5.134358 C 28.073268 5.134358 28.110234 5.134358 28.153361 5.134358 C 28.190327 5.134358 28.239616 5.140519 28.295065 5.152841 L 27.863792 7.124373 C 27.746733 7.056602 27.641995 7.025797 27.55574 7.025797 C 27.457164 7.025797 27.364748 7.050441 27.272333 7.093568 C 27.186078 7.136695 27.118307 7.198306 27.075179 7.266077 C 27.050535 7.309204 27.025891 7.352332 27.007408 7.40162 C 26.982764 7.450908 26.970442 7.512519 26.964281 7.586451 C 26.95812 7.660384 26.951959 7.75896 26.945798 7.87602 C 26.945798 7.986919 26.939637 8.134784 26.939637 8.313454 L 26.939637 10.999666 L 24.974266 10.999666 Z M 28.948135 10.808674 C 29.305475 10.968861 29.601205 11.079759 29.841485 11.147531 C 30.075605 11.215302 30.309724 11.252269 30.537683 11.252269 C 30.858057 11.252269 31.079854 11.153692 31.209236 10.9627 C 31.338617 10.771708 31.400228 10.432851 31.400228 9.958451 L 31.400228 9.083583 L 31.067532 10.556071 L 30.204987 10.556071 C 29.995511 10.556071 29.798358 10.519105 29.607366 10.445173 C 29.410213 10.365079 29.250026 10.260341 29.114483 10.124799 C 28.972779 9.989256 28.880363 9.810586 28.824914 9.582627 C 28.769465 9.36083 28.73866 9.028134 28.73866 8.5907 L 28.73866 7.124373 L 28.295065 7.124373 L 28.73866 5.152841 L 30.69787 5.152841 L 30.69787 7.450908 C 30.69787 7.845215 30.704031 8.122461 30.710192 8.282648 C 30.716353 8.436674 30.734836 8.547573 30.765641 8.615344 C 30.839573 8.763209 31.005921 8.843303 31.258524 8.843303 C 31.277007 8.843303 31.29549 8.843303 31.326295 8.843303 C 31.35094 8.843303 31.381745 8.837142 31.400228 8.830981 L 31.400228 5.152841 L 33.37176 5.152841 L 33.37176 10.469817 C 33.37176 10.734741 33.365599 10.9627 33.353277 11.147531 C 33.340955 11.338523 33.31631 11.49871 33.279344 11.634253 C 33.248539 11.769796 33.199251 11.893016 33.143801 11.991593 C 33.088352 12.09017 33.01442 12.188746 32.928165 12.281162 C 32.712529 12.50912 32.429121 12.675468 32.084103 12.792528 C 31.732924 12.909588 31.338617 12.971198 30.888862 12.971198 C 30.543844 12.971198 30.161859 12.934232 29.742909 12.860299 C 29.323958 12.786367 28.929652 12.693951 28.572312 12.570731 Z M 28.948135 10.808674 " stroke="#1d9cea" stroke-width="0.3225" stroke-opacity="1" stroke-miterlimit="4"/><path stroke-linecap="butt" transform="matrix(0.634028, 0, 0, 0.634028, 65.927417, 9.443904)" fill="none" stroke-linejoin="miter" d="M 0.841477 8.338058 C 1.137205 8.541371 1.445255 8.707718 1.77795 8.824777 C 2.104483 8.935675 2.406372 8.997285 2.689778 8.997285 C 2.849964 8.997285 2.979345 8.954158 3.084082 8.874065 C 3.188819 8.793972 3.238107 8.689235 3.238107 8.553693 C 3.238107 8.479761 3.225785 8.41199 3.201141 8.356541 C 3.176497 8.294931 3.13337 8.233321 3.059438 8.171711 C 2.985506 8.10394 2.893091 8.036169 2.76371 7.962237 C 2.64049 7.894466 2.480304 7.808212 2.276991 7.715797 C 1.907331 7.537128 1.611602 7.383103 1.408289 7.259882 C 1.204976 7.130501 1.026307 6.994959 0.878443 6.847095 C 0.668969 6.662265 0.508783 6.434308 0.404046 6.157063 C 0.293148 5.873657 0.237699 5.571768 0.237699 5.251395 C 0.237699 4.906379 0.293148 4.592168 0.410207 4.302601 C 0.521105 4.019195 0.681291 3.766594 0.884604 3.55712 C 1.087917 3.341485 1.328196 3.175137 1.59928 3.058078 C 1.870365 2.934858 2.166093 2.873248 2.498787 2.873248 C 2.665134 2.873248 2.82532 2.88557 2.973184 2.904053 C 3.121048 2.922536 3.312039 2.965663 3.552318 3.021112 L 3.638572 2.669935 L 5.363653 3.095044 L 4.827646 5.288361 C 4.599689 5.103531 4.353249 4.961828 4.076004 4.863252 C 3.80492 4.764676 3.539996 4.715388 3.287395 4.715388 C 3.090243 4.715388 2.923896 4.752354 2.800676 4.826286 C 2.677456 4.906379 2.615846 5.004955 2.615846 5.134336 C 2.615846 5.195946 2.628168 5.257556 2.658973 5.313006 C 2.683617 5.368455 2.739066 5.430065 2.819159 5.491675 C 2.899252 5.559446 3.01015 5.627217 3.145692 5.70731 C 3.281234 5.787403 3.453742 5.879818 3.657055 5.984555 C 3.860369 6.089292 4.032877 6.175546 4.168419 6.255639 C 4.310122 6.329571 4.427181 6.403503 4.531918 6.471274 C 4.630494 6.539045 4.716748 6.606816 4.784519 6.668426 C 4.858451 6.730036 4.926222 6.803968 4.993993 6.884061 C 5.34517 7.30917 5.517678 7.832856 5.517678 8.455117 C 5.517678 8.849421 5.456068 9.206759 5.320526 9.533293 C 5.191145 9.865987 5.006315 10.143232 4.778358 10.37735 C 4.54424 10.611468 4.266995 10.790137 3.940462 10.925679 C 3.620089 11.05506 3.262751 11.122831 2.868447 11.122831 C 2.437177 11.122831 2.018229 11.061221 1.605441 10.944162 C 1.198815 10.820942 0.773706 10.629951 0.336275 10.37735 Z M 6.226194 4.758515 L 5.782602 4.758515 L 6.226194 2.805477 L 8.197715 2.805477 L 8.197715 6.921027 L 8.579697 5.152819 L 9.140348 5.152819 C 9.46072 5.152819 9.713321 5.183624 9.891991 5.239073 C 10.076821 5.294523 10.237007 5.39926 10.37871 5.540963 C 10.50193 5.658022 10.594345 5.793564 10.655955 5.929106 C 10.717565 6.070809 10.766853 6.243317 10.803819 6.452791 C 10.80998 6.514401 10.816141 6.56985 10.816141 6.612977 C 10.822302 6.656104 10.828463 6.717714 10.828463 6.797807 C 10.834624 6.8779 10.834624 6.988798 10.834624 7.12434 C 10.834624 7.259882 10.834624 7.450874 10.834624 7.691153 L 10.834624 9.083539 L 11.253572 9.083539 L 10.834624 10.999611 L 8.869264 10.999611 L 8.869264 8.793972 C 8.869264 8.448956 8.863103 8.184033 8.863103 7.993042 C 8.856942 7.808212 8.850781 7.666509 8.84462 7.567933 C 8.838459 7.469357 8.826137 7.407747 8.813815 7.376942 C 8.801493 7.346137 8.78301 7.315331 8.758366 7.278365 C 8.672112 7.167467 8.524248 7.112018 8.314774 7.112018 C 8.277808 7.112018 8.234681 7.118179 8.197715 7.12434 L 8.197715 10.999611 L 6.226194 10.999611 Z M 14.06299 5.03576 C 14.43265 5.03576 14.771505 5.109692 15.079555 5.257556 C 15.387605 5.405421 15.652528 5.614895 15.874324 5.885979 C 16.102282 6.157063 16.27479 6.483596 16.39801 6.853256 C 16.52123 7.222916 16.58284 7.629543 16.58284 8.073135 C 16.58284 8.522888 16.52123 8.935675 16.39801 9.311496 C 16.27479 9.687318 16.102282 10.00769 15.874324 10.272613 C 15.652528 10.543697 15.381444 10.74701 15.067233 10.894874 C 14.753022 11.048899 14.401845 11.122831 14.032185 11.122831 C 13.668685 11.122831 13.335991 11.042738 13.034102 10.888713 C 12.738374 10.740849 12.473451 10.525214 12.251655 10.25413 C 12.029859 9.983046 11.857351 9.662674 11.727969 9.293013 C 11.604749 8.917192 11.543139 8.510566 11.543139 8.073135 C 11.543139 7.629543 11.604749 7.222916 11.727969 6.853256 C 11.857351 6.483596 12.029859 6.163224 12.251655 5.89214 C 12.473451 5.627217 12.738374 5.417743 13.046424 5.263717 C 13.354474 5.109692 13.693329 5.03576 14.06299 5.03576 Z M 14.06299 7.038086 C 13.87816 7.038086 13.742617 7.136662 13.644041 7.321492 C 13.545465 7.512484 13.496177 7.777407 13.496177 8.134745 C 13.496177 8.492083 13.545465 8.763167 13.644041 8.954158 C 13.742617 9.145149 13.87816 9.237564 14.06299 9.237564 C 14.24782 9.237564 14.389523 9.145149 14.481938 8.954158 C 14.580514 8.763167 14.629802 8.498244 14.629802 8.153228 C 14.629802 7.413908 14.438811 7.038086 14.06299 7.038086 Z M 16.693738 5.152819 L 18.825445 5.152819 L 19.306003 7.79589 L 19.860493 5.152819 L 21.530125 5.152819 L 22.066133 7.79589 L 22.559013 5.152819 L 24.696881 5.152819 L 23.162791 10.999611 L 21.154304 10.999611 L 20.686068 8.504405 L 20.193188 10.999611 L 18.215506 10.999611 Z M 28.214814 10.962645 C 28.029983 11.018094 27.863636 11.061221 27.715772 11.079704 C 27.567908 11.104348 27.413883 11.122831 27.253697 11.122831 C 26.884037 11.122831 26.551343 11.042738 26.249454 10.888713 C 25.947564 10.740849 25.694963 10.531375 25.473167 10.260291 C 25.263693 9.995368 25.091185 9.668835 24.974126 9.293013 C 24.850906 8.911031 24.795457 8.492083 24.795457 8.036169 C 24.795457 7.586416 24.850906 7.179789 24.967965 6.81629 C 25.085024 6.44663 25.251371 6.126258 25.460845 5.861335 C 25.682641 5.602573 25.941403 5.39926 26.243293 5.251395 C 26.545182 5.109692 26.890198 5.03576 27.266019 5.03576 C 27.45701 5.03576 27.623357 5.054243 27.76506 5.085048 C 27.912924 5.115853 28.060788 5.171302 28.214814 5.251395 L 27.783543 7.179789 C 27.629518 7.087374 27.500137 7.038086 27.3954 7.038086 C 27.21057 7.038086 27.068867 7.136662 26.970291 7.327653 C 26.871715 7.518645 26.822427 7.789729 26.822427 8.134745 C 26.822427 8.461278 26.871715 8.726201 26.970291 8.929514 C 27.068867 9.132827 27.198248 9.237564 27.358434 9.237564 C 27.438527 9.237564 27.512459 9.219081 27.567908 9.182115 C 27.629518 9.145149 27.70345 9.083539 27.783543 8.997285 Z M 30.864045 10.974967 C 30.494385 10.962645 30.21714 10.925679 30.019987 10.864069 C 29.822835 10.802459 29.638005 10.691561 29.459336 10.531375 C 29.163608 10.266452 28.941812 9.921436 28.787787 9.502488 C 28.633762 9.077378 28.55983 8.590659 28.55983 8.036169 C 28.55983 7.598738 28.615279 7.198272 28.713855 6.834773 C 28.818592 6.477435 28.966456 6.169385 29.157447 5.910623 C 29.354599 5.658022 29.588717 5.46087 29.859801 5.325328 C 30.137046 5.189785 30.445097 5.122014 30.777791 5.122014 C 30.962621 5.122014 31.128968 5.140497 31.276832 5.183624 C 31.424696 5.22059 31.578721 5.2822 31.738907 5.374616 L 31.738907 5.152819 L 33.636496 5.152819 L 33.636496 9.083539 L 34.055444 9.083539 L 33.636496 10.999611 L 31.671136 10.999611 L 31.671136 9.237564 L 31.270671 10.999611 Z M 31.671136 7.956076 C 31.671136 7.808212 31.664975 7.691153 31.658814 7.598738 C 31.658814 7.506323 31.646492 7.432391 31.63417 7.370781 C 31.628009 7.30917 31.609526 7.259882 31.597204 7.229077 C 31.578721 7.192111 31.554077 7.155145 31.523272 7.12434 C 31.437018 7.025764 31.32612 6.982637 31.2029 6.982637 C 31.01807 6.982637 30.870206 7.075052 30.753147 7.259882 C 30.642249 7.450874 30.5868 7.697314 30.5868 7.999203 C 30.5868 8.726201 30.870206 9.0897 31.443179 9.0897 C 31.455501 9.0897 31.486306 9.0897 31.535594 9.0897 C 31.584882 9.0897 31.628009 9.0897 31.671136 9.083539 Z M 34.683867 8.830938 C 34.954951 9.015768 35.176747 9.145149 35.355416 9.225242 C 35.527924 9.305335 35.681949 9.342301 35.823652 9.342301 C 36.020804 9.342301 36.11938 9.268369 36.11938 9.114344 C 36.11938 9.046573 36.088575 8.978802 36.014643 8.917192 C 35.946872 8.861743 35.81133 8.775489 35.601856 8.670752 C 34.800926 8.282609 34.400461 7.709636 34.400461 6.957993 C 34.400461 6.674587 34.45591 6.415825 34.554486 6.181707 C 34.653062 5.947589 34.794765 5.744276 34.973434 5.577929 C 35.152103 5.411582 35.367738 5.276039 35.614178 5.183624 C 35.866779 5.085048 36.137863 5.03576 36.433592 5.03576 C 36.562973 5.03576 36.686193 5.041921 36.803252 5.060404 C 36.926472 5.078887 37.049692 5.103531 37.172912 5.134336 C 37.302293 5.165141 37.437835 5.208268 37.573377 5.263717 C 37.71508 5.319167 37.875266 5.386938 38.047774 5.467031 L 37.690436 7.161306 C 37.234522 6.896383 36.889506 6.760841 36.661549 6.760841 C 36.593778 6.760841 36.54449 6.785485 36.495202 6.822451 C 36.452075 6.865578 36.433592 6.914866 36.433592 6.982637 C 36.433592 7.019603 36.439753 7.050408 36.445914 7.075052 C 36.452075 7.099696 36.48288 7.130501 36.532168 7.167467 C 36.587617 7.204433 36.66771 7.253721 36.778608 7.315331 C 36.895667 7.376942 37.049692 7.469357 37.259166 7.592577 C 37.89991 7.943754 38.220282 8.467439 38.220282 9.163632 C 38.220282 9.4532 38.164833 9.711962 38.053935 9.952241 C 37.949198 10.186359 37.795173 10.389672 37.604182 10.568341 C 37.40703 10.74701 37.172912 10.882552 36.907989 10.974967 C 36.636905 11.073543 36.341177 11.122831 36.020804 11.122831 C 35.466314 11.122831 34.868697 10.99345 34.234114 10.734688 Z M 42.853357 10.944162 C 42.606917 11.005772 42.372799 11.048899 42.169485 11.073543 C 41.960011 11.104348 41.744376 11.122831 41.516419 11.122831 C 40.96809 11.122831 40.499854 11.024255 40.124032 10.839425 C 39.74205 10.648434 39.415517 10.352706 39.144433 9.94608 C 38.750129 9.360784 38.559138 8.707718 38.559138 7.986881 C 38.559138 7.574094 38.620748 7.18595 38.750129 6.822451 C 38.873349 6.465113 39.052018 6.150902 39.279975 5.885979 C 39.507932 5.621056 39.772855 5.417743 40.080905 5.263717 C 40.382795 5.109692 40.715489 5.03576 41.078988 5.03576 C 41.89224 5.03576 42.514502 5.405421 42.939611 6.13858 C 43.278466 6.75468 43.450974 7.463196 43.450974 8.251804 C 43.450974 8.270287 43.450974 8.307253 43.450974 8.368863 C 43.450974 8.424312 43.450974 8.485922 43.438652 8.553693 L 40.573786 8.553693 C 40.684684 8.855582 40.832548 9.071217 41.0297 9.200598 C 41.220691 9.329979 41.497936 9.39159 41.855274 9.39159 C 42.064748 9.39159 42.298866 9.373107 42.551468 9.329979 C 42.81023 9.280691 43.038187 9.219081 43.247661 9.138988 Z M 41.578029 7.389264 C 41.541063 7.105857 41.479453 6.908705 41.393199 6.785485 C 41.306945 6.656104 41.189886 6.594494 41.042022 6.594494 C 40.894158 6.594494 40.770938 6.668426 40.672362 6.81629 C 40.573786 6.957993 40.512176 7.148984 40.499854 7.389264 Z M 41.578029 7.389264 " stroke="#68bd43" stroke-width="0.3225" stroke-opacity="1" stroke-miterlimit="4"/></svg>